<?xml version="1.0" standalone="no"?>
<!DOCTYPE svg PUBLIC "-//W3C//DTD SVG 20010904//EN"
 "http://www.w3.org/TR/2001/REC-SVG-20010904/DTD/svg10.dtd">
<svg version="1.0" xmlns="http://www.w3.org/2000/svg"
 width="132.000000pt" height="132.000000pt" viewBox="0 0 132.000000 132.000000"
 preserveAspectRatio="xMidYMid meet">
<metadata>
Created by potrace 1.11, written by Peter Selinger 2001-2013
</metadata>
<g transform="translate(0.000000,132.000000) scale(0.100000,-0.100000)"
fill="#000000" stroke="none">
<path d="M641 1075 c-6 -16 -20 -46 -31 -66 -25 -47 -25 -59 1 -59 12 0 32
-12 45 -27 l23 -26 35 31 c23 20 42 29 52 25 9 -3 15 -2 13 3 -42 94 -70 144
-79 139 -6 -3 -10 -45 -10 -96 0 -49 -4 -89 -8 -89 -5 0 -8 36 -7 81 1 94 -16
136 -34 84z"/>
<path d="M574 925 c-4 -8 -4 -24 -1 -36 4 -15 2 -18 -7 -10 -9 8 -23 -13 -57
-86 -24 -53 -43 -100 -42 -104 1 -4 -4 -13 -12 -19 -8 -7 -15 -21 -15 -30 0
-10 -3 -20 -8 -22 -10 -4 -91 -182 -86 -187 3 -3 19 9 37 25 18 16 12 9 -13
-16 -27 -26 -56 -68 -69 -100 -13 -30 -27 -60 -32 -66 -11 -13 6 -68 32 -105
16 -23 82 -59 108 -59 5 0 27 18 51 41 23 22 37 32 31 21 -6 -11 -24 -31 -40
-45 -27 -22 -28 -26 -15 -45 22 -31 84 -38 136 -14 24 11 57 30 74 43 26 21
30 30 29 67 -1 23 2 42 7 42 4 0 8 -20 8 -43 0 -49 11 -63 78 -97 63 -33 116
-34 150 -5 27 23 27 23 6 41 -11 11 -31 33 -44 49 -13 17 -5 11 19 -13 39 -38
48 -42 75 -36 48 10 87 43 108 91 22 49 17 80 -15 93 -17 7 -18 9 -5 9 16 1
15 7 -9 56 -15 30 -33 55 -39 55 -12 0 -74 65 -74 77 0 3 16 -12 35 -33 19
-20 37 -35 40 -32 3 3 -21 61 -53 129 -33 68 -72 153 -88 189 -16 36 -39 83
-51 105 -13 22 -27 50 -33 63 -10 22 -35 28 -58 13 -33 -21 -42 -63 -42 -197
l0 -134 40 0 c50 0 117 26 131 51 5 11 14 19 19 19 6 0 0 -11 -11 -24 -26 -30
-87 -56 -131 -56 -29 0 -30 -1 -15 -18 14 -16 47 -83 47 -97 0 -3 -5 -5 -12
-5 -6 0 -9 3 -5 6 10 10 -13 61 -39 85 l-24 22 0 -56 c0 -31 -4 -57 -8 -57 -5
0 -8 22 -8 50 1 27 -3 51 -9 52 -15 2 -55 -62 -55 -89 0 -13 -4 -22 -9 -19
-12 8 8 71 31 95 24 27 23 31 -11 31 -16 0 -42 5 -57 10 -28 11 -101 70 -86
70 5 0 19 -11 32 -25 37 -39 152 -62 162 -32 2 6 4 66 4 132 -1 105 -4 125
-23 158 -17 27 -29 37 -48 37 -14 0 -28 -7 -31 -15z m219 -55 c-3 -12 -8 -19
-11 -16 -5 6 5 36 12 36 2 0 2 -9 -1 -20z m-345 -351 c-12 -10 -25 -15 -28
-12 -3 3 1 8 8 10 6 3 10 8 8 12 -3 4 4 7 15 7 19 0 18 -1 -3 -17z m488 -6
c-4 -4 -12 -1 -19 7 -9 10 -9 11 1 6 7 -4 12 -2 13 6 0 11 2 11 6 0 3 -7 2
-16 -1 -19z m-247 -168 c0 -63 -3 -115 -7 -115 -4 0 -7 52 -7 115 0 63 3 115
7 115 4 0 7 -52 7 -115z m64 80 c-9 -19 -18 -33 -21 -31 -4 5 26 66 33 66 3 0
-3 -16 -12 -35z m-134 -5 c11 -24 11 -24 -3 -6 -9 11 -16 24 -16 30 0 12 5 7
19 -24z m-141 -32 c-16 -5 -28 -13 -28 -16 -1 -13 -40 -57 -40 -45 0 22 51 73
73 72 19 0 18 -2 -5 -11z m434 0 c21 -17 53 -68 42 -68 -5 1 -18 15 -29 33
-26 40 -59 46 -93 15 l-27 -23 24 28 c26 29 58 35 83 15z m-381 -15 c13 -16
12 -17 -3 -4 -17 13 -22 21 -14 21 2 0 10 -8 17 -17z"/>
</g>
</svg>
